<?xml version="1.0" encoding="utf-8"?>
<!-- Generator: Adobe Illustrator 24.1.2, SVG Export Plug-In . SVG Version: 6.00 Build 0)  -->
<svg version="1.1" id="图层_1" xmlns="http://www.w3.org/2000/svg" xmlns:xlink="http://www.w3.org/1999/xlink" x="0px" y="0px"
	 viewBox="0 0 700 700" style="enable-background:new 0 0 700 700;" xml:space="preserve">
<style type="text/css">
	.st0{fill:#5FA3FF;}
</style>
<g transform="translate(0.000000,700.000000) scale(0.100000,-0.100000)">
	<path class="st0" d="M3180,5894c-157-124-303-240-324-258l-40-32l75-59c41-33,81-65,89-72s123-98,254-203l239-190l36,27
		c20,15,159,126,310,246c150,120,282,224,292,230c11,7,19,15,19,19c0,3-66,59-147,122c-82,64-155,122-163,129
		c-109,89-340,267-347,267C3469,6119,3337,6018,3180,5894z"/>
	<path class="st0" d="M4775,4661C3469,3628,3479,3636,3455,3651c-21,13-79,58-438,342c-62,49-127,101-146,115c-19,15-60,47-91,72
		c-32,25-73,57-91,72c-90,70-486,383-698,550c-40,32-78,58-83,58s-75-53-155-117c-80-65-155-125-166-133c-12-8-35-27-51-42
		c-16-16-33-28-37-28c-21,0-5-21,44-60c28-22,60-47,69-55c9-7,70-55,135-106s159-125,208-164c132-104,218-173,874-691
		c327-258,607-477,621-486c25-17,27-17,51,2c13,10,63,49,110,87c47,37,101,80,120,95c206,162,547,431,559,441c8,7,85,67,170,134
		s259,203,385,303c127,100,316,249,422,332s190,154,188,159c-6,8-394,322-410,330C5040,4864,4918,4774,4775,4661z"/>
	<path class="st0" d="M396,3655c-104-84-195-160-203-168c-16-15-37,3,547-457c227-179,223-176,394-311c71-56,248-196,395-311
		c261-206,307-242,360-284c14-12,157-124,317-250c159-126,507-400,772-609c266-209,486-381,491-383s51,30,102,71
		c149,116,617,485,694,546c39,31,88,70,109,86c21,17,44,35,50,40c6,6,81,65,166,132c142,110,404,316,440,346c8,7,35,28,60,47
		s54,43,65,52s101,80,200,158c199,156,289,227,605,476c118,93,222,174,230,181c17,14,215,170,305,241c33,25,62,49,65,52
		c3,4,41,33,85,67c44,33,90,70,103,81l23,20l-68,53c-37,30-70,56-73,59c-8,9-153,126-206,166c-27,21-50,41-52,46c-9,21-46-1-200-123
		c-92-72-176-138-187-147c-11-10-72-57-135-107c-63-49-117-92-120-95s-45-37-95-75c-49-38-104-80-121-94c-34-28-37-30-139-111
		c-38-30-77-60-85-67s-139-110-290-228c-151-119-284-224-295-233c-11-10-99-79-195-154s-279-219-407-320c-127-101-289-228-359-283
		s-159-125-198-156l-71-57l-30,21c-16,12-32,24-35,27s-34,28-70,55c-81,63-99,77-114,90c-6,6-29,24-51,40c-22,17-42,32-45,35
		s-47,39-99,80c-52,40-102,79-110,86c-9,8-117,93-241,190c-123,97-240,189-260,204c-39,32-229,182-855,675c-236,186-497,392-580,457
		c-340,270-377,298-389,297C590,3809,500,3739,396,3655z"/>
</g>
</svg>
