<svg width="107" height="30" viewBox="0 0 107 30" fill="none" xmlns="http://www.w3.org/2000/svg">
<rect width="107" height="30" rx="5.39326" fill="#9971E7"/>
<g clip-path="url(#clip0_4_5)">
<path fill-rule="evenodd" clip-rule="evenodd" d="M20 15V27.5H32.5H45V15V2.5H32.5H20V15ZM27.3184 7.45288C27.9696 7.56625 28.2056 8.22181 27.7359 8.6125C27.5979 8.72725 27.3003 8.925 27.2656 8.925C27.2527 8.925 27.2074 8.95144 27.1649 8.98381C27.1223 9.01612 27.0425 9.05787 26.9875 9.07662C26.9325 9.09537 26.8584 9.13019 26.8229 9.15406C26.7874 9.17787 26.7031 9.21925 26.6354 9.24594C26.5678 9.27262 26.4509 9.33512 26.3756 9.38475C26.3003 9.43437 26.2286 9.475 26.2162 9.475C26.2039 9.475 26.2068 9.49062 26.2226 9.50969C26.2867 9.58681 28.9253 9.58006 30.175 9.49956C31.3886 9.42137 33.689 9.42025 34.1875 9.49762C34.27 9.51044 34.4724 9.53919 34.6372 9.56156C34.9784 9.60794 35.4986 9.72481 35.775 9.81738C35.8781 9.85188 36.0222 9.89587 36.0953 9.91512C36.1684 9.93444 36.2756 9.97181 36.3337 9.99825C36.3917 10.0247 36.4726 10.0543 36.5134 10.0639C36.5541 10.0735 36.6381 10.1079 36.7 10.1404C36.7619 10.1728 36.8611 10.2161 36.9204 10.2366C36.9798 10.2572 37.0585 10.295 37.0954 10.3208C37.1323 10.3465 37.2154 10.3874 37.28 10.4117C37.3447 10.436 37.4167 10.4771 37.4401 10.5029C37.4636 10.5288 37.4951 10.5502 37.5101 10.5504C37.5362 10.5508 37.8849 10.7498 37.9378 10.7945C37.9517 10.8063 38.0294 10.8601 38.1104 10.9142C38.415 11.1174 38.5086 11.1884 38.8616 11.4837C39.2191 11.7827 39.8286 12.4356 40.15 12.8638C40.1981 12.9279 40.2741 13.0253 40.3188 13.0801C40.3634 13.1349 40.4 13.1895 40.4 13.2015C40.4 13.2134 40.4322 13.2602 40.4716 13.3054C40.511 13.3506 40.5511 13.4128 40.5607 13.4436C40.5704 13.4744 40.5929 13.5144 40.6109 13.5324C40.6546 13.5761 40.9 14.0397 40.9 14.0786C40.9 14.0954 40.9216 14.1549 40.948 14.2109C41.0084 14.3389 41.0748 14.5384 41.0756 14.5946C41.0759 14.6182 41.0976 14.7014 41.1238 14.7796C41.2467 15.1469 41.2472 16.1364 41.1247 16.635C40.9709 17.2609 40.9419 17.3564 40.8336 17.5962C40.7518 17.7772 40.7768 17.8046 41.1476 17.9384C41.3077 17.9961 41.5272 18.1197 41.6296 18.2096C41.6527 18.23 41.7034 18.2668 41.7421 18.2913C41.8144 18.3371 41.9871 18.5118 42.1028 18.6561C42.3395 18.9516 42.319 19.4574 42.0562 19.8027C41.7012 20.2691 40.9976 20.4196 40.298 20.1788C39.7644 19.9951 39.7011 19.991 39.5884 20.1331C39.3408 20.4453 39.2586 20.5309 39 20.7456C38.8831 20.8426 38.7618 20.9452 38.7304 20.9735C38.6989 21.0018 38.6666 21.025 38.6586 21.025C38.6504 21.025 38.5729 21.0756 38.4862 21.1375C38.3995 21.1994 38.3186 21.25 38.3065 21.25C38.2944 21.25 38.2604 21.2723 38.2311 21.2996C38.2018 21.3269 38.1158 21.3787 38.0399 21.4146C37.9641 21.4505 37.889 21.4956 37.873 21.5149C37.857 21.5343 37.83 21.55 37.8131 21.55C37.7961 21.55 37.6934 21.5949 37.5849 21.6499C37.4763 21.7048 37.3774 21.7498 37.365 21.7499C37.3526 21.7499 37.2851 21.7769 37.215 21.8098C36.8215 21.9944 35.9138 22.2743 35.425 22.3617C34.4954 22.5281 34.269 22.5489 33.3875 22.5487C32.6649 22.5485 32.2446 22.5222 31.875 22.4538C31.7306 22.4271 31.5163 22.392 31.3988 22.3758C31.2812 22.3596 31.1068 22.3244 31.0112 22.2977C30.9157 22.2709 30.7719 22.2376 30.6916 22.2236C30.6114 22.2097 30.4652 22.1712 30.3666 22.1381C30.2681 22.1051 30.1318 22.0655 30.0636 22.0502C29.9955 22.035 29.9055 22.0067 29.8636 21.9876C29.8217 21.9683 29.7144 21.9287 29.625 21.8995C29.5356 21.8703 29.4041 21.8191 29.3328 21.7857C29.2614 21.7523 29.1913 21.725 29.1769 21.725C29.1625 21.725 29.0765 21.6856 28.9858 21.6375C28.8951 21.5894 28.8063 21.55 28.7885 21.55C28.7707 21.55 28.743 21.5343 28.727 21.5149C28.711 21.4956 28.6337 21.4495 28.5552 21.4124C28.4767 21.3752 28.4069 21.3371 28.4 21.3275C28.3931 21.3179 28.3369 21.2792 28.275 21.2414C28.1454 21.1622 28.0096 21.0673 27.9375 21.0054C27.91 20.9818 27.8425 20.9296 27.7875 20.8892C27.4497 20.6418 26.9619 20.0385 26.7857 19.65C26.7639 19.6019 26.7146 19.495 26.676 19.4125C26.6375 19.33 26.5918 19.1894 26.5743 19.1C26.5568 19.0106 26.5259 18.9046 26.5058 18.8643C26.4581 18.7691 26.4339 18.0291 26.4709 17.8C26.5062 17.5826 26.6124 17.1929 26.6601 17.1069C26.6811 17.0688 26.7221 16.989 26.751 16.9298C26.78 16.8705 26.8197 16.8159 26.8393 16.8083C26.8589 16.8008 26.875 16.7834 26.875 16.7696C26.875 16.6777 27.5062 16.0284 28.0312 15.5802C28.447 15.2254 28.4298 15.256 28.3125 15.0819C28.2644 15.0104 28.225 14.9411 28.225 14.9279C28.225 14.9147 28.1987 14.8721 28.1666 14.8332C28.1065 14.7606 28.05 14.5386 28.05 14.3754C28.05 13.7604 28.8532 13.3646 29.55 13.6362C29.5981 13.6549 29.7019 13.6892 29.7806 13.7122C29.8592 13.7353 29.9533 13.7776 29.9895 13.8061C30.1318 13.918 30.2957 13.8979 30.4875 13.7448C30.5593 13.6874 30.7767 13.55 30.7955 13.55C30.837 13.55 30.9011 13.457 30.8863 13.4184C30.8686 13.3721 30.7749 13.3337 30.6375 13.3164C30.5825 13.3094 30.4419 13.2865 30.325 13.2654C30.2081 13.2443 29.9887 13.2151 29.8375 13.2004C29.5234 13.1701 29.4019 13.1525 29 13.0795C28.8419 13.0508 28.6113 13.0108 28.4875 12.9906C28.3638 12.9705 28.1669 12.9309 28.05 12.9027C27.9331 12.8744 27.8037 12.851 27.7625 12.8506C27.7212 12.8503 27.5694 12.8206 27.425 12.7847C27.2806 12.7488 27.0838 12.7049 26.9875 12.6872C26.7459 12.6426 26.2009 12.5083 25.975 12.4377C25.8719 12.4055 25.7425 12.3711 25.6875 12.3612C25.6325 12.3514 25.5588 12.3288 25.5237 12.3111C25.4887 12.2934 25.3818 12.2541 25.2863 12.2238C25.1907 12.1935 25.0787 12.1484 25.0375 12.1237C24.9962 12.0989 24.9063 12.0598 24.8375 12.0367C24.7688 12.0136 24.6956 11.9801 24.675 11.9621C24.6544 11.9441 24.5756 11.8996 24.5 11.8632C24.0152 11.6297 23.4996 11.2531 23.2151 10.9245C23.1499 10.8491 23.0769 10.765 23.053 10.7375C22.7151 10.3486 22.6223 9.36725 22.8958 9.07381C22.9256 9.04181 22.95 9.00156 22.95 8.98444C22.95 8.92231 23.4989 8.4 23.5642 8.4C23.5796 8.4 23.613 8.37706 23.6383 8.34906C23.6637 8.32106 23.7301 8.27675 23.7859 8.25056C23.8418 8.22438 23.9156 8.18587 23.95 8.16494C24.1939 8.01656 25.0099 7.71013 25.3625 7.63444C25.4588 7.61381 25.6275 7.57356 25.7375 7.545C26.157 7.43619 26.9554 7.38963 27.3184 7.45288ZM25.6625 8.5C25.6075 8.52656 25.5231 8.55544 25.475 8.56413C25.3414 8.58825 25.1754 8.63931 25.0417 8.6975C24.9752 8.72638 24.9052 8.75 24.886 8.75C24.8668 8.75 24.7693 8.78756 24.6693 8.83344C24.5693 8.87937 24.4505 8.93156 24.4053 8.94938C24.299 8.99138 24.3138 9.02956 24.4518 9.06962C24.5127 9.08725 24.6189 9.12944 24.6879 9.16337C24.844 9.24012 24.8769 9.24025 24.9481 9.1645C24.9794 9.13125 25.0376 9.0905 25.0775 9.074C25.1174 9.05744 25.15 9.03581 25.15 9.02588C25.15 9.016 25.1921 8.98644 25.2436 8.96019C25.2951 8.93394 25.392 8.87594 25.4589 8.83125C25.5259 8.78656 25.5998 8.75 25.6233 8.75C25.6468 8.75 25.7076 8.71288 25.7586 8.6675C25.8096 8.62213 25.9029 8.57125 25.9658 8.55444C26.0624 8.52856 26.0754 8.51806 26.0495 8.48694C26.0052 8.4335 25.7847 8.44094 25.6625 8.5ZM24.0122 9.20619C23.9982 9.238 23.9581 9.26781 23.9195 9.27494C23.7254 9.31081 23.5696 9.79519 23.6864 10C23.7059 10.0344 23.7384 10.0976 23.7584 10.1405C23.8149 10.2618 24.2366 10.6708 24.3608 10.725C24.3766 10.7319 24.4298 10.7687 24.4791 10.8068C24.5283 10.8449 24.6178 10.9019 24.6781 10.9336C25.1481 11.1806 25.2868 11.2501 25.3104 11.2506C25.3253 11.2509 25.405 11.2844 25.4875 11.325C25.57 11.3656 25.6551 11.3991 25.6765 11.3994C25.6979 11.3998 25.7823 11.4259 25.864 11.4576C25.9457 11.4892 26.08 11.5292 26.1625 11.5464C26.245 11.5636 26.3462 11.5891 26.3875 11.6029C26.5712 11.6648 26.7012 11.6985 26.8875 11.7327C26.9975 11.7529 27.1775 11.7927 27.2875 11.8211C27.3975 11.8494 27.6 11.8947 27.7375 11.9217C27.875 11.9487 28.0663 11.9874 28.1625 12.0079C28.2588 12.0283 28.4331 12.0582 28.55 12.0746C28.6669 12.0909 28.8131 12.1191 28.875 12.1372C28.9369 12.1554 29.0944 12.183 29.225 12.1987C29.6036 12.244 29.8239 12.2754 30.025 12.3128C30.1281 12.3319 30.3419 12.3604 30.5 12.376C30.8467 12.4102 31.2639 12.5294 31.5936 12.6885C31.8809 12.8271 31.987 12.8169 32.2064 12.6294C32.2551 12.5879 32.3344 12.5399 32.4163 12.5026C32.4459 12.4891 32.4776 12.466 32.4867 12.4512C32.4959 12.4364 32.5448 12.4072 32.5954 12.3863C32.6461 12.3654 32.6989 12.3334 32.7127 12.3152C32.7266 12.2969 32.7941 12.2518 32.8627 12.2149C33.0458 12.1164 33.2849 11.9739 33.2996 11.9544C33.3169 11.9317 33.6239 11.7814 33.6897 11.7634C33.873 11.7134 34.1774 11.9994 34.1731 12.2175C34.1698 12.3852 33.9732 12.675 33.8629 12.675C33.8536 12.675 33.7866 12.7144 33.7141 12.7625C33.6416 12.8106 33.5703 12.85 33.5556 12.85C33.5409 12.85 33.4971 12.8762 33.4582 12.9084C33.4193 12.9405 33.3284 12.9985 33.2563 13.0373C33.1841 13.0762 33.125 13.1162 33.125 13.1263C33.125 13.1363 33.0782 13.1633 33.021 13.1862C32.9639 13.2091 32.8879 13.2505 32.8523 13.2783C32.7496 13.3584 32.4448 13.55 32.4202 13.55C32.4079 13.55 32.3675 13.5781 32.3304 13.6125C32.2933 13.6469 32.253 13.675 32.2408 13.675C32.2285 13.675 32.1637 13.7144 32.0967 13.7625C32.0297 13.8106 31.9696 13.85 31.9631 13.85C31.9566 13.85 31.8357 13.9274 31.6944 14.0219C31.1839 14.3636 31.0705 14.4384 30.9862 14.4891C30.9391 14.5176 30.8744 14.5654 30.8424 14.5954C30.8104 14.6254 30.7767 14.65 30.7674 14.65C30.7485 14.65 30.4469 14.8479 30.35 14.9239C30.2666 14.9892 30.1348 15.0836 30.0125 15.1655C29.9575 15.2023 29.9069 15.2403 29.9 15.2499C29.8931 15.2596 29.8468 15.2944 29.7969 15.3275C29.6794 15.4054 29.3019 15.6858 29.2375 15.7431C29.21 15.7675 29.1538 15.8091 29.1125 15.8355C29.0713 15.8619 29.0228 15.9041 29.0048 15.9292C28.9869 15.9544 28.9609 15.975 28.947 15.975C28.9332 15.975 28.8343 16.0509 28.7273 16.1438C28.6203 16.2366 28.4842 16.3519 28.4249 16.4C28.0682 16.6898 27.6376 17.1673 27.5068 17.4184C27.3263 17.7644 27.3011 18.6628 27.4629 18.9759C27.4864 19.0211 27.5255 19.1154 27.5499 19.1853C27.5951 19.3144 27.7222 19.5381 27.8128 19.6477C28.0003 19.8746 28.2095 20.1033 28.2489 20.1244C28.2746 20.1381 28.3291 20.1804 28.37 20.2184C28.4931 20.3325 28.8067 20.5492 28.975 20.6364C29.2926 20.801 29.6007 20.95 29.6234 20.95C29.6382 20.95 29.706 20.9769 29.7741 21.0098C29.8423 21.0426 29.9576 21.0835 30.0302 21.1005C30.103 21.1176 30.1906 21.1459 30.225 21.1635C30.3185 21.2115 30.4208 21.2436 30.5875 21.2776C30.67 21.2944 30.758 21.3184 30.783 21.3309C30.8562 21.3675 31.0713 21.4167 31.3 21.4491C31.4169 21.4657 31.5631 21.4942 31.625 21.5125C32.2694 21.7029 34.4479 21.7024 35.1379 21.5117C35.2068 21.4926 35.3699 21.4587 35.5004 21.4363C35.6308 21.4139 35.7881 21.3743 35.85 21.3482C35.9119 21.3222 36.0322 21.2849 36.1173 21.2655C36.2024 21.2461 36.3093 21.211 36.3548 21.1876C36.4003 21.1642 36.5082 21.1244 36.5946 21.0991C36.6809 21.0737 36.7892 21.0299 36.835 21.0015C36.8809 20.9732 36.9309 20.95 36.9463 20.95C36.9803 20.95 37.4575 20.7238 37.475 20.6994C37.4819 20.6898 37.5522 20.6504 37.6313 20.6119C37.7103 20.5734 37.775 20.5337 37.775 20.5237C37.775 20.5136 37.8172 20.4881 37.8687 20.4668C37.9203 20.4456 37.9952 20.3993 38.0351 20.3641C38.0751 20.3288 38.1162 20.3 38.1265 20.3C38.1566 20.3 38.4416 20.062 38.6871 19.8317C38.8354 19.6927 38.8464 19.5546 38.7206 19.4114C38.3619 19.0028 39.0143 18.5006 39.4101 18.8806C39.4786 18.9463 39.7398 19.0654 39.975 19.1381C40.0781 19.1699 40.2131 19.2134 40.275 19.2347C40.7601 19.4014 41.1416 19.4628 41.1696 19.3787C41.1749 19.3629 41.1934 19.35 41.2109 19.35C41.2738 19.35 41.3791 19.2274 41.3621 19.1739C41.3411 19.1074 41.2452 19.0133 41.1165 18.9327C41.0593 18.8968 41.0069 18.8608 41 18.8525C40.9234 18.7606 40.7846 18.7387 40.275 18.7381C39.8462 18.7376 39.7482 18.7306 39.675 18.6953C39.6269 18.6721 39.5441 18.6356 39.4911 18.6143C39.3323 18.5501 38.9682 18.227 38.91 18.0983C38.7937 17.8414 38.8584 17.6159 39.0833 17.4948C39.2203 17.4209 39.5039 17.4568 39.5674 17.556C39.6381 17.6667 39.8367 17.7092 39.8731 17.6214C40.3309 16.5154 40.4476 15.4584 40.1896 14.7537C40.1712 14.7036 40.1365 14.6063 40.1123 14.5375C40.0037 14.2283 39.7065 13.7415 39.3644 13.3125C38.9838 12.8352 38.5848 12.4179 38.2357 12.1321C38.1817 12.0879 38.0859 12.0091 38.0228 11.9571C37.7995 11.7731 37.5176 11.5834 37.1518 11.3711C36.9719 11.2668 36.6057 11.0801 36.5438 11.0612C36.5128 11.0519 36.42 11.0133 36.3375 10.9756C36.0416 10.8404 35.5008 10.6671 35.125 10.587C34.204 10.3907 34.0107 10.3749 32.5457 10.3754C31.4897 10.3758 30.7603 10.3934 28.3375 10.4773C26.9723 10.5246 25.4731 10.4463 25.0609 10.3061C24.9793 10.2784 24.8562 10.2411 24.7875 10.2232C24.2684 10.0884 23.8164 9.59862 24.0217 9.39331C24.0373 9.37775 24.05 9.33837 24.05 9.30587C24.05 9.27331 24.0616 9.22494 24.0759 9.19838C24.0953 9.16206 24.0936 9.15 24.0693 9.15C24.0514 9.15 24.0257 9.17531 24.0122 9.20619ZM29.1075 14.5056C29.0544 14.5741 29.0509 14.5974 29.0881 14.6346C29.1351 14.6816 29.2565 14.6391 29.2448 14.5798C29.2326 14.5191 29.1371 14.4674 29.1075 14.5056ZM30.2851 16.9125C30.3357 16.9469 30.3863 16.975 30.3973 16.975C30.443 16.975 30.5059 17.0794 30.541 17.2137C30.6923 17.7934 29.9286 18.0468 29.6667 17.5038C29.4876 17.1327 29.9534 16.6874 30.2851 16.9125ZM34.6739 18.2742C34.7364 18.3109 34.7997 18.3654 34.8147 18.3953C34.8297 18.4252 34.8606 18.4703 34.8835 18.4956C34.9964 18.6203 34.8182 19.0901 34.6538 19.1011C34.6448 19.1017 34.5869 19.1123 34.525 19.1245C34.095 19.2099 33.7858 18.655 34.0988 18.3596C34.2926 18.1767 34.4644 18.1512 34.6739 18.2742Z" fill="#9971E7"/>
<path fill-rule="evenodd" clip-rule="evenodd" d="M26.1752 7.46196C26.0445 7.47915 25.8477 7.51652 25.7377 7.54502C25.6277 7.57359 25.4589 7.61384 25.3627 7.63446C25.01 7.71015 24.1941 8.01659 23.9502 8.16496C23.9158 8.1859 23.842 8.2244 23.7861 8.25059C23.7302 8.27677 23.6639 8.32109 23.6385 8.34909C23.6132 8.37709 23.5798 8.40002 23.5644 8.40002C23.499 8.40002 22.9502 8.92234 22.9502 8.98446C22.9502 9.00159 22.9257 9.04184 22.8959 9.07384C22.6225 9.36727 22.7153 10.3486 23.0532 10.7375C23.0771 10.765 23.15 10.8492 23.2152 10.9245C23.4998 11.2531 24.0154 11.6297 24.5002 11.8632C24.5758 11.8996 24.6545 11.9441 24.6752 11.9621C24.6958 11.9801 24.7689 12.0137 24.8377 12.0367C24.9064 12.0598 24.9964 12.099 25.0377 12.1237C25.0789 12.1485 25.1909 12.1935 25.2864 12.2238C25.382 12.2541 25.4889 12.2934 25.5239 12.3111C25.559 12.3288 25.6327 12.3514 25.6877 12.3612C25.7427 12.3711 25.872 12.4055 25.9752 12.4377C26.2011 12.5083 26.746 12.6426 26.9877 12.6872C27.0839 12.705 27.2808 12.7488 27.4252 12.7847C27.5695 12.8206 27.7214 12.8503 27.7627 12.8506C27.8039 12.851 27.9333 12.8744 28.0502 12.9027C28.167 12.931 28.3639 12.9705 28.4877 12.9907C28.6114 13.0108 28.842 13.0508 29.0002 13.0795C29.402 13.1525 29.5236 13.1701 29.8377 13.2005C29.9889 13.2151 30.2083 13.2443 30.3252 13.2654C30.442 13.2865 30.5827 13.3095 30.6377 13.3164C30.775 13.3338 30.8687 13.3721 30.8865 13.4184C30.9013 13.457 30.8372 13.55 30.7957 13.55C30.7769 13.55 30.5595 13.6875 30.4877 13.7448C30.2959 13.8979 30.132 13.918 29.9897 13.8061C29.9534 13.7776 29.8594 13.7353 29.7807 13.7123C29.702 13.6892 29.5983 13.655 29.5502 13.6362C28.8534 13.3646 28.0502 13.7604 28.0502 14.3754C28.0502 14.5386 28.1067 14.7606 28.1667 14.8332C28.1989 14.8721 28.2252 14.9147 28.2252 14.9279C28.2252 14.9411 28.2645 15.0105 28.3127 15.0819C28.4299 15.256 28.4472 15.2254 28.0314 15.5803C27.5064 16.0284 26.8752 16.6777 26.8752 16.7696C26.8752 16.7834 26.8591 16.8008 26.8395 16.8083C26.8199 16.8159 26.7802 16.8705 26.7512 16.9298C26.7222 16.989 26.6813 17.0688 26.6602 17.1069C26.4782 17.4361 26.3757 18.6043 26.506 18.8643C26.5261 18.9046 26.5569 19.0107 26.5744 19.1C26.5919 19.1894 26.6377 19.33 26.6762 19.4125C26.7147 19.495 26.764 19.6019 26.7859 19.65C26.9621 20.0385 27.4499 20.6418 27.7877 20.8893C27.8427 20.9296 27.9102 20.9818 27.9377 21.0055C28.0097 21.0673 28.1456 21.1623 28.2752 21.2414C28.337 21.2792 28.3933 21.318 28.4002 21.3275C28.407 21.3371 28.4769 21.3753 28.5554 21.4124C28.6339 21.4495 28.7112 21.4957 28.7272 21.515C28.7432 21.5343 28.7709 21.55 28.7887 21.55C28.8065 21.55 28.8952 21.5894 28.986 21.6375C29.0767 21.6857 29.1627 21.725 29.1771 21.725C29.1915 21.725 29.2616 21.7523 29.333 21.7857C29.4043 21.8192 29.5358 21.8703 29.6252 21.8995C29.7145 21.9287 29.8219 21.9683 29.8638 21.9876C29.9057 22.0068 29.9957 22.035 30.0638 22.0503C30.1319 22.0655 30.2683 22.1051 30.3668 22.1381C30.4654 22.1712 30.6116 22.2097 30.6918 22.2236C30.772 22.2376 30.9159 22.271 31.0114 22.2977C31.107 22.3245 31.2814 22.3596 31.3989 22.3758C31.5165 22.392 31.7308 22.4271 31.8752 22.4538C32.2448 22.5222 32.665 22.5485 33.3877 22.5487C34.2692 22.5489 34.4955 22.5281 35.4252 22.3618C35.9139 22.2743 36.8217 21.9944 37.2152 21.8098C37.2853 21.777 37.3528 21.75 37.3652 21.7499C37.3775 21.7498 37.4765 21.7048 37.585 21.6499C37.6936 21.595 37.7963 21.55 37.8132 21.55C37.8302 21.55 37.8572 21.5343 37.8732 21.515C37.8892 21.4957 37.9643 21.4505 38.0401 21.4146C38.116 21.3787 38.202 21.327 38.2313 21.2997C38.2606 21.2723 38.2945 21.25 38.3067 21.25C38.3188 21.25 38.3997 21.1994 38.4864 21.1375C38.573 21.0757 38.6506 21.025 38.6587 21.025C38.6668 21.025 38.6991 21.0018 38.7305 20.9735C38.762 20.9452 38.8833 20.8426 39.0002 20.7456C39.2587 20.531 39.341 20.4453 39.5885 20.1331C39.7012 19.991 39.7645 19.9951 40.2982 20.1788C40.9978 20.4196 41.7014 20.2691 42.0564 19.8028C42.3192 19.4574 42.3397 18.9517 42.1029 18.6561C41.9873 18.5118 41.8146 18.3372 41.7422 18.2913C41.7035 18.2668 41.6529 18.23 41.6297 18.2097C41.5274 18.1197 41.3079 17.9962 41.1478 17.9384C40.777 17.8046 40.7519 17.7773 40.8337 17.5963C40.9421 17.3565 40.971 17.261 41.1249 16.635C41.2474 16.1365 41.2469 15.147 41.124 14.7796C41.0978 14.7015 41.0761 14.6182 41.0758 14.5947C41.075 14.5385 41.0086 14.339 40.9482 14.2109C40.9218 14.155 40.9002 14.0955 40.9002 14.0786C40.9002 14.0397 40.6548 13.5761 40.6111 13.5324C40.5931 13.5144 40.5705 13.4745 40.5609 13.4437C40.5513 13.4128 40.5112 13.3506 40.4718 13.3054C40.4324 13.2602 40.4002 13.2135 40.4002 13.2015C40.4002 13.1895 40.3636 13.1349 40.3189 13.0801C40.2742 13.0253 40.1983 12.928 40.1502 12.8638C40.0424 12.7202 39.9089 12.5553 39.7549 12.3758C39.6016 12.1969 39.0202 11.6163 38.8617 11.4837C38.5088 11.1885 38.4152 11.1175 38.1106 10.9142C38.0295 10.8601 37.9519 10.8063 37.938 10.7945C37.885 10.7498 37.5364 10.5508 37.5103 10.5505C37.4952 10.5502 37.4637 10.5288 37.4403 10.503C37.4169 10.4771 37.3449 10.436 37.2802 10.4117C37.2155 10.3875 37.1325 10.3465 37.0955 10.3208C37.0587 10.295 36.9799 10.2572 36.9205 10.2366C36.8612 10.2161 36.762 10.1728 36.7002 10.1404C36.6383 10.108 36.5543 10.0735 36.5135 10.0639C36.4728 10.0543 36.3919 10.0247 36.3339 9.99827C36.2758 9.97184 36.1685 9.93446 36.0955 9.91515C36.0224 9.8959 35.8783 9.8519 35.7752 9.8174C35.4988 9.72484 34.9786 9.60796 34.6374 9.56159C34.4725 9.53921 34.2702 9.51046 34.1877 9.49765C33.6892 9.42027 31.3887 9.4214 30.1752 9.49959C28.9255 9.58009 26.2869 9.58684 26.2228 9.50971C26.207 9.49065 26.2041 9.47502 26.2164 9.47502C26.2287 9.47502 26.3004 9.4344 26.3757 9.38477C26.451 9.33515 26.568 9.27265 26.6356 9.24596C26.7032 9.21927 26.7876 9.1779 26.8231 9.15409C26.8586 9.13021 26.9327 9.0954 26.9877 9.07665C27.0427 9.0579 27.1225 9.01615 27.165 8.98384C27.2076 8.95146 27.2529 8.92502 27.2658 8.92502C27.3005 8.92502 27.5981 8.72727 27.736 8.61252C28.2058 8.22184 27.9698 7.56627 27.3186 7.4529C27.1122 7.41696 26.48 7.42196 26.1752 7.46196ZM26.0497 8.48696C26.0755 8.51809 26.0625 8.52859 25.9659 8.55446C25.903 8.57127 25.8098 8.62215 25.7588 8.66752C25.7078 8.7129 25.6469 8.75002 25.6234 8.75002C25.6 8.75002 25.526 8.78659 25.4591 8.83127C25.3922 8.87596 25.2953 8.93396 25.2438 8.96021C25.1923 8.98646 25.1502 9.01602 25.1502 9.0259C25.1502 9.03584 25.1175 9.05746 25.0777 9.07402C25.0377 9.09052 24.9795 9.13128 24.9483 9.16453C24.8771 9.24028 24.8442 9.24015 24.688 9.1634C24.6191 9.12946 24.5129 9.08727 24.452 9.06965C24.314 9.02959 24.2992 8.9914 24.4055 8.9494C24.4507 8.93159 24.5695 8.8794 24.6695 8.83346C24.7695 8.78759 24.867 8.75002 24.8862 8.75002C24.9054 8.75002 24.9754 8.7264 25.0419 8.69753C25.1756 8.63934 25.3416 8.58827 25.4752 8.56415C25.5233 8.55546 25.6077 8.52659 25.6627 8.50002C25.7849 8.44096 26.0054 8.43352 26.0497 8.48696ZM24.076 9.1984C24.0618 9.22496 24.0502 9.27334 24.0502 9.3059C24.0502 9.3384 24.0374 9.37777 24.0219 9.39334C23.8165 9.59865 24.2685 10.0884 24.7877 10.2232C24.8564 10.2411 24.9795 10.2784 25.061 10.3061C25.4733 10.4463 26.9725 10.5246 28.3377 10.4773C33.1278 10.3115 33.8901 10.3238 35.1252 10.587C35.501 10.6671 36.0418 10.8405 36.3377 10.9756C36.4202 11.0133 36.513 11.0519 36.5439 11.0613C36.8027 11.14 37.6656 11.6626 38.0229 11.9571C38.086 12.0091 38.1819 12.0879 38.2359 12.1321C38.6638 12.4825 39.2778 13.1543 39.589 13.6125C39.8021 13.9263 39.8626 14.0218 39.9448 14.1743C40.0582 14.3846 40.0606 14.3898 40.1125 14.5375C40.1367 14.6063 40.1714 14.7036 40.1898 14.7538C40.4477 15.4585 40.331 16.5155 39.8732 17.6214C39.8369 17.7092 39.6383 17.6668 39.5675 17.556C39.5041 17.4568 39.2205 17.421 39.0834 17.4948C38.8586 17.616 38.7939 17.8414 38.9102 18.0983C38.9684 18.227 39.3324 18.5501 39.4913 18.6143C39.5443 18.6356 39.627 18.6721 39.6752 18.6953C39.7484 18.7306 39.8464 18.7376 40.2752 18.7381C40.7847 18.7387 40.9236 18.7606 41.0002 18.8525C41.007 18.8608 41.0595 18.8968 41.1167 18.9327C41.2454 19.0133 41.3412 19.1074 41.3623 19.174C41.3793 19.2274 41.274 19.35 41.2111 19.35C41.1936 19.35 41.175 19.3629 41.1698 19.3787C41.1417 19.4628 40.7603 19.4015 40.2752 19.2347C40.2133 19.2135 40.0783 19.17 39.9752 19.1381C39.74 19.0654 39.4788 18.9463 39.4103 18.8806C39.0144 18.5006 38.3621 19.0028 38.7208 19.4114C38.8465 19.5546 38.8355 19.6927 38.6873 19.8317C38.4417 20.062 38.1568 20.3 38.1267 20.3C38.1164 20.3 38.0752 20.3288 38.0353 20.3641C37.9954 20.3993 37.9205 20.4456 37.8689 20.4668C37.8174 20.4881 37.7752 20.5136 37.7752 20.5237C37.7752 20.5337 37.7105 20.5734 37.6314 20.6119C37.5524 20.6505 37.482 20.6898 37.4752 20.6994C37.4577 20.7238 36.9804 20.95 36.9464 20.95C36.9311 20.95 36.881 20.9732 36.8352 21.0015C36.7894 21.0299 36.6811 21.0738 36.5947 21.0991C36.5084 21.1244 36.4005 21.1642 36.355 21.1877C36.3095 21.211 36.2026 21.2461 36.1175 21.2655C36.0324 21.285 35.912 21.3222 35.8502 21.3482C35.7883 21.3743 35.631 21.4139 35.5005 21.4363C35.3701 21.4587 35.207 21.4927 35.138 21.5117C34.448 21.7025 32.2695 21.703 31.6252 21.5125C31.5633 21.4942 31.417 21.4657 31.3002 21.4492C31.0715 21.4167 30.8564 21.3675 30.7832 21.3309C30.7582 21.3184 30.6702 21.2944 30.5877 21.2776C30.421 21.2436 30.3187 21.2115 30.2252 21.1635C30.1908 21.1459 30.1032 21.1176 30.0304 21.1005C29.9577 21.0835 29.8425 21.0427 29.7743 21.0098C29.7062 20.9769 29.6384 20.95 29.6236 20.95C29.6009 20.95 29.2928 20.801 28.9752 20.6365C28.8069 20.5492 28.4932 20.3325 28.3702 20.2185C28.3292 20.1805 28.2747 20.1381 28.249 20.1245C28.2097 20.1033 28.0005 19.8747 27.813 19.6477C27.7224 19.5381 27.5952 19.3144 27.5501 19.1853C27.5257 19.1154 27.4865 19.0212 27.4631 18.9759C27.3012 18.6628 27.3265 17.7645 27.5069 17.4184C27.6378 17.1673 28.0684 16.6898 28.4251 16.4C28.4844 16.3519 28.6204 16.2366 28.7274 16.1438C28.8345 16.051 28.9334 15.975 28.9472 15.975C28.961 15.975 28.987 15.9545 29.005 15.9293C29.023 15.9041 29.0714 15.8619 29.1127 15.8355C29.1539 15.8091 29.2102 15.7675 29.2377 15.7431C29.3021 15.6858 29.6795 15.4054 29.7971 15.3275C29.8469 15.2945 29.8933 15.2596 29.9002 15.25C29.907 15.2403 29.9577 15.2023 30.0127 15.1655C30.135 15.0836 30.2668 14.9893 30.3502 14.9239C30.447 14.8479 30.7487 14.65 30.7675 14.65C30.7769 14.65 30.8106 14.6255 30.8425 14.5954C30.8745 14.5654 30.9392 14.5176 30.9864 14.4892C31.0707 14.4384 31.184 14.3636 31.6946 14.022C31.8359 13.9274 31.9568 13.85 31.9633 13.85C31.9697 13.85 32.0299 13.8106 32.0969 13.7625C32.1639 13.7144 32.2287 13.675 32.2409 13.675C32.2532 13.675 32.2935 13.6469 32.3306 13.6125C32.3677 13.5781 32.408 13.55 32.4204 13.55C32.445 13.55 32.7497 13.3584 32.8524 13.2783C32.8881 13.2505 32.964 13.2091 33.0212 13.1862C33.0784 13.1633 33.1252 13.1363 33.1252 13.1263C33.1252 13.1162 33.1842 13.0762 33.2564 13.0373C33.3286 12.9985 33.4195 12.9405 33.4584 12.9084C33.4972 12.8763 33.541 12.85 33.5557 12.85C33.5705 12.85 33.6418 12.8106 33.7143 12.7625C33.7868 12.7144 33.8537 12.675 33.863 12.675C33.9734 12.675 34.1699 12.3852 34.1733 12.2175C34.1776 11.9995 33.8732 11.7135 33.6899 11.7635C33.6241 11.7814 33.317 11.9318 33.2998 11.9545C33.285 11.974 33.046 12.1164 32.8629 12.2149C32.7942 12.2518 32.7267 12.2969 32.7129 12.3152C32.699 12.3335 32.6462 12.3655 32.5956 12.3863C32.545 12.4072 32.4961 12.4364 32.4869 12.4512C32.4778 12.466 32.4461 12.4892 32.4165 12.5027C32.3345 12.54 32.2553 12.5879 32.2066 12.6295C31.9872 12.8169 31.881 12.8271 31.5938 12.6885C31.264 12.5295 30.8469 12.4102 30.5002 12.376C30.342 12.3604 30.1283 12.332 30.0252 12.3128C29.8241 12.2755 29.6037 12.244 29.2252 12.1987C29.0945 12.183 28.937 12.1554 28.8752 12.1372C28.8133 12.1191 28.667 12.0909 28.5502 12.0746C28.4333 12.0583 28.2589 12.0283 28.1627 12.0079C28.0664 11.9875 27.8752 11.9487 27.7377 11.9217C27.6002 11.8947 27.3977 11.8495 27.2877 11.8211C27.1777 11.7927 26.9977 11.753 26.8877 11.7328C26.7014 11.6985 26.5714 11.6648 26.3877 11.603C26.3464 11.5891 26.2452 11.5636 26.1627 11.5465C26.0802 11.5293 25.9459 11.4893 25.8642 11.4576C25.7825 11.426 25.6981 11.3998 25.6767 11.3995C25.6552 11.3992 25.5702 11.3656 25.4877 11.325C25.4052 11.2844 25.3255 11.2509 25.3105 11.2506C25.287 11.2501 25.1483 11.1806 24.6782 10.9336C24.618 10.902 24.5285 10.8449 24.4792 10.8068C24.43 10.7687 24.3768 10.7319 24.361 10.725C24.2367 10.6708 23.8151 10.2618 23.7585 10.1405C23.7385 10.0976 23.7061 10.0344 23.6865 10C23.5698 9.79521 23.7255 9.31084 23.9197 9.27496C23.9582 9.26784 23.9984 9.23803 24.0124 9.20621C24.0259 9.17534 24.0516 9.15002 24.0695 9.15002C24.0938 9.15002 24.0955 9.16209 24.076 9.1984ZM29.2449 14.5798C29.2567 14.6391 29.1353 14.6816 29.0883 14.6346C29.0511 14.5974 29.0546 14.5741 29.1077 14.5056C29.1372 14.4675 29.2328 14.5191 29.2449 14.5798ZM29.855 16.9341C29.5765 17.1431 29.5504 17.4698 29.794 17.6957C30.0295 17.9138 30.4529 17.7865 30.5456 17.4698C30.5949 17.3014 30.4971 16.975 30.3974 16.975C30.3864 16.975 30.3359 16.9469 30.2853 16.9125C30.15 16.8207 29.9959 16.8285 29.855 16.9341ZM34.2794 18.2367C33.763 18.4979 33.9671 19.2354 34.5252 19.1245C34.587 19.1123 34.645 19.1017 34.6539 19.1011C34.8184 19.0901 34.9965 18.6203 34.8837 18.4956C34.8608 18.4703 34.8299 18.4252 34.8149 18.3953C34.737 18.2397 34.4447 18.1531 34.2794 18.2367Z" fill="#F6F5FB"/>
</g>
<path d="M56.188 19.352C56.092 19.272 56.036 19.168 56.02 19.04C56.004 18.92 56.032 18.812 56.104 18.716C56.392 18.348 56.648 17.992 56.872 17.648C57.096 17.304 57.296 16.972 57.472 16.652C57.656 16.324 57.82 16 57.964 15.68C58.116 15.352 58.252 15.02 58.372 14.684H57.232C57.104 14.684 56.996 14.644 56.908 14.564C56.82 14.476 56.776 14.368 56.776 14.24C56.776 14.112 56.82 14.004 56.908 13.916C56.996 13.828 57.104 13.784 57.232 13.784H58.672C58.704 13.704 58.732 13.624 58.756 13.544C58.78 13.456 58.804 13.368 58.828 13.28C58.868 13.152 58.94 13.06 59.044 13.004C59.156 12.94 59.276 12.928 59.404 12.968C59.532 13.008 59.624 13.084 59.68 13.196C59.744 13.3 59.756 13.412 59.716 13.532L59.644 13.784H63.292C63.42 13.784 63.528 13.828 63.616 13.916C63.704 14.004 63.748 14.112 63.748 14.24C63.748 14.368 63.704 14.476 63.616 14.564C63.528 14.644 63.42 14.684 63.292 14.684H59.344C59.304 14.812 59.26 14.94 59.212 15.068C59.164 15.188 59.116 15.312 59.068 15.44H62.632C62.784 15.44 62.904 15.496 62.992 15.608C63.064 15.736 63.084 15.868 63.052 16.004C62.94 16.364 62.748 16.72 62.476 17.072C62.212 17.424 61.88 17.768 61.48 18.104C61.88 18.304 62.304 18.488 62.752 18.656C63.2 18.832 63.676 18.984 64.18 19.112C64.3 19.144 64.392 19.212 64.456 19.316C64.52 19.42 64.536 19.532 64.504 19.652C64.48 19.756 64.428 19.836 64.348 19.892C64.268 19.956 64.18 19.988 64.084 19.988C64.028 19.988 63.988 19.984 63.964 19.976C63.436 19.84 62.888 19.664 62.32 19.448C61.752 19.24 61.208 18.984 60.688 18.68C60.208 18.984 59.696 19.248 59.152 19.472C58.608 19.696 58.048 19.868 57.472 19.988C57.352 20.012 57.24 19.988 57.136 19.916C57.032 19.852 56.968 19.76 56.944 19.64C56.92 19.52 56.94 19.408 57.004 19.304C57.076 19.2 57.172 19.136 57.292 19.112C57.748 19.016 58.192 18.884 58.624 18.716C59.064 18.548 59.48 18.36 59.872 18.152C59.584 17.928 59.32 17.696 59.08 17.456C58.848 17.216 58.652 16.956 58.492 16.676C58.284 17.092 58.044 17.508 57.772 17.924C57.508 18.34 57.192 18.788 56.824 19.268C56.736 19.388 56.616 19.448 56.464 19.448C56.384 19.448 56.292 19.416 56.188 19.352ZM56.092 12.608C56.092 12.392 56.168 12.208 56.32 12.056C56.472 11.904 56.656 11.828 56.872 11.828H57.88L57.328 10.952C57.264 10.84 57.244 10.724 57.268 10.604C57.3 10.476 57.372 10.38 57.484 10.316C57.588 10.252 57.7 10.232 57.82 10.256C57.948 10.28 58.048 10.348 58.12 10.46L58.684 11.348C58.772 11.516 58.772 11.676 58.684 11.828H60.172C60.172 11.812 60.16 11.796 60.136 11.78L59.692 10.868C59.636 10.756 59.628 10.64 59.668 10.52C59.716 10.4 59.796 10.308 59.908 10.244C60.02 10.188 60.132 10.184 60.244 10.232C60.364 10.272 60.456 10.348 60.52 10.46L60.964 11.372C61.004 11.46 61.016 11.544 61 11.624C60.992 11.696 60.968 11.768 60.928 11.84H61.96C61.888 11.704 61.888 11.564 61.96 11.42L62.476 10.352C62.54 10.24 62.628 10.164 62.74 10.124C62.86 10.076 62.976 10.08 63.088 10.136C63.2 10.192 63.276 10.28 63.316 10.4C63.364 10.52 63.36 10.636 63.304 10.748L62.776 11.828H63.676C63.9 11.828 64.088 11.904 64.24 12.056C64.392 12.208 64.468 12.392 64.468 12.608V13.472C64.468 13.6 64.42 13.712 64.324 13.808C64.236 13.896 64.128 13.94 64 13.94C63.88 13.94 63.772 13.896 63.676 13.808C63.588 13.712 63.544 13.6 63.544 13.472V12.752H57.016V13.4C57.016 13.528 56.968 13.64 56.872 13.736C56.784 13.824 56.68 13.868 56.56 13.868C56.432 13.868 56.32 13.824 56.224 13.736C56.136 13.64 56.092 13.528 56.092 13.4V12.608ZM56.632 9.668C56.624 9.54 56.66 9.428 56.74 9.332C56.82 9.236 56.924 9.184 57.052 9.176L63.796 8.768C63.924 8.752 64.032 8.788 64.12 8.876C64.216 8.956 64.268 9.06 64.276 9.188C64.292 9.316 64.256 9.428 64.168 9.524C64.088 9.62 63.984 9.672 63.856 9.68L57.112 10.1H57.088C56.968 10.1 56.864 10.06 56.776 9.98C56.688 9.892 56.64 9.788 56.632 9.668ZM59.332 16.328C59.476 16.56 59.66 16.784 59.884 17C60.116 17.216 60.384 17.428 60.688 17.636C61.24 17.22 61.664 16.784 61.96 16.328H59.332ZM68.3786 19.088C68.8266 18.928 69.2786 18.72 69.7346 18.464C70.1986 18.208 70.6466 17.904 71.0786 17.552C70.7586 17.192 70.4746 16.816 70.2266 16.424C69.9866 16.032 69.7866 15.616 69.6266 15.176C69.3146 16.04 68.9666 16.864 68.5826 17.648C68.1986 18.424 67.7866 19.14 67.3466 19.796C67.2586 19.932 67.1306 20 66.9626 20C66.8746 20 66.7906 19.976 66.7106 19.928C66.6066 19.856 66.5426 19.756 66.5186 19.628C66.4946 19.508 66.5186 19.396 66.5906 19.292C67.2226 18.332 67.7906 17.252 68.2946 16.052C68.7986 14.844 69.2186 13.58 69.5546 12.26H67.2986C67.1466 12.26 67.0266 12.204 66.9386 12.092C66.8506 11.964 66.8186 11.832 66.8426 11.696L67.2986 9.416C67.3226 9.288 67.3866 9.188 67.4906 9.116C67.5946 9.044 67.7106 9.024 67.8386 9.056C67.9666 9.08 68.0626 9.144 68.1266 9.248C68.1986 9.344 68.2226 9.456 68.1986 9.584L67.8506 11.312H69.7466C69.9146 10.52 70.0466 9.744 70.1426 8.984C70.1586 8.856 70.2146 8.756 70.3106 8.684C70.4146 8.604 70.5266 8.572 70.6466 8.588C70.7746 8.604 70.8786 8.664 70.9586 8.768C71.0386 8.864 71.0706 8.976 71.0546 9.104C71.0146 9.472 70.9626 9.84 70.8986 10.208C70.8346 10.576 70.7666 10.944 70.6946 11.312H74.6906C74.8186 11.312 74.9266 11.36 75.0146 11.456C75.1026 11.544 75.1466 11.652 75.1466 11.78C75.1466 11.9 75.1026 12.008 75.0146 12.104C74.9266 12.192 74.8186 12.236 74.6906 12.236H70.4906C70.4506 12.388 70.4106 12.54 70.3706 12.692C70.3306 12.836 70.2906 12.984 70.2506 13.136H74.0186C74.1626 13.136 74.2786 13.192 74.3666 13.304C74.4546 13.408 74.4866 13.532 74.4626 13.676C74.3346 14.428 74.0866 15.128 73.7186 15.776C73.3506 16.416 72.9066 17.004 72.3866 17.54C72.7386 17.844 73.1186 18.124 73.5266 18.38C73.9426 18.628 74.3986 18.864 74.8946 19.088C75.0066 19.144 75.0826 19.228 75.1226 19.34C75.1706 19.46 75.1666 19.58 75.1106 19.7C75.0546 19.812 74.9666 19.888 74.8466 19.928C74.7346 19.976 74.6186 19.976 74.4986 19.928C73.4106 19.424 72.4826 18.84 71.7146 18.176C71.2346 18.584 70.7386 18.936 70.2266 19.232C69.7146 19.528 69.2066 19.768 68.7026 19.952C68.6706 19.96 68.6426 19.964 68.6186 19.964C68.5946 19.972 68.5666 19.976 68.5346 19.976C68.4466 19.976 68.3586 19.948 68.2706 19.892C68.1906 19.844 68.1346 19.772 68.1026 19.676C68.0626 19.556 68.0666 19.436 68.1146 19.316C68.1706 19.204 68.2586 19.128 68.3786 19.088ZM70.2386 14.072C70.4866 15.136 70.9866 16.084 71.7386 16.916C72.1306 16.508 72.4746 16.068 72.7706 15.596C73.0666 15.124 73.2906 14.616 73.4426 14.072H70.2386ZM72.7706 8.948C72.8586 8.86 72.9666 8.816 73.0946 8.816C73.2226 8.816 73.3306 8.86 73.4186 8.948L74.5466 10.088C74.6346 10.176 74.6786 10.284 74.6786 10.412C74.6786 10.54 74.6346 10.648 74.5466 10.736C74.4506 10.832 74.3426 10.88 74.2226 10.88C74.1186 10.88 74.0106 10.832 73.8986 10.736L72.7706 9.596C72.6826 9.508 72.6386 9.4 72.6386 9.272C72.6386 9.144 72.6826 9.036 72.7706 8.948ZM84.6132 17.948C84.6132 17.82 84.6532 17.716 84.7332 17.636C84.8132 17.548 84.9172 17.504 85.0452 17.504C85.1732 17.504 85.2812 17.548 85.3692 17.636C85.4572 17.724 85.5012 17.832 85.5012 17.96V18.668C85.5012 18.82 85.4732 18.964 85.4172 19.1C85.3612 19.236 85.2812 19.352 85.1772 19.448C85.0812 19.552 84.9652 19.632 84.8292 19.688C84.6932 19.744 84.5492 19.772 84.3972 19.772H81.5892C81.4372 19.772 81.2932 19.744 81.1572 19.688C81.0212 19.632 80.9012 19.552 80.7972 19.448C80.7012 19.352 80.6252 19.236 80.5692 19.1C80.5132 18.964 80.4852 18.82 80.4852 18.668V17.048H78.0732C77.8492 17.048 77.6612 16.972 77.5092 16.82C77.3572 16.668 77.2812 16.484 77.2812 16.268V11.216C77.2812 10.992 77.3572 10.804 77.5092 10.652C77.6612 10.5 77.8492 10.424 78.0732 10.424H80.4852V9.056C80.4852 8.928 80.5292 8.82 80.6172 8.732C80.7052 8.636 80.8132 8.588 80.9412 8.588C81.0692 8.588 81.1772 8.636 81.2652 8.732C81.3612 8.82 81.4092 8.928 81.4092 9.056V10.412H83.8092C84.0252 10.412 84.2092 10.488 84.3612 10.64C84.5132 10.792 84.5892 10.98 84.5892 11.204V16.232C84.6052 16.448 84.5412 16.632 84.3972 16.784C84.2372 16.952 84.0452 17.036 83.8212 17.036H81.4212V18.656C81.4212 18.784 81.4852 18.848 81.6132 18.848H84.4212C84.5492 18.848 84.6132 18.784 84.6132 18.656V17.948ZM80.5092 16.112V14.072H78.2292V16.112H80.5092ZM83.6892 16.112V14.072H81.4332V16.112H83.6892ZM78.2292 11.336V13.148H80.5092V11.336H78.2292ZM81.4332 11.336V13.148H83.6892V11.336H81.4332Z" fill="white"/>
<defs>
<clipPath id="clip0_4_5">
<rect width="25" height="25" fill="white" transform="translate(20 2.5)"/>
</clipPath>
</defs>
</svg>
