<svg width="798" height="200" viewBox="0 0 798 200" fill="none" xmlns="http://www.w3.org/2000/svg">
<path d="M8.09091 147V53.9091H45.3636C52.2121 53.9091 57.9242 54.9242 62.5 56.9545C67.0758 58.9848 70.5152 61.803 72.8182 65.4091C75.1212 68.9848 76.2727 73.1061 76.2727 77.7727C76.2727 81.4091 75.5455 84.6061 74.0909 87.3636C72.6364 90.0909 70.6364 92.3333 68.0909 94.0909C65.5758 95.8182 62.697 97.0455 59.4545 97.7727V98.6818C63 98.8333 66.3182 99.8333 69.4091 101.682C72.5303 103.53 75.0606 106.121 77 109.455C78.9394 112.758 79.9091 116.697 79.9091 121.273C79.9091 126.212 78.6818 130.621 76.2273 134.5C73.803 138.348 70.2121 141.394 65.4545 143.636C60.697 145.879 54.8333 147 47.8636 147H8.09091ZM27.7727 130.909H43.8182C49.303 130.909 53.303 129.864 55.8182 127.773C58.3333 125.652 59.5909 122.833 59.5909 119.318C59.5909 116.742 58.9697 114.47 57.7273 112.5C56.4849 110.53 54.7121 108.985 52.4091 107.864C50.1364 106.742 47.4242 106.182 44.2727 106.182H27.7727V130.909ZM27.7727 92.8636H42.3636C45.0606 92.8636 47.4545 92.3939 49.5455 91.4545C51.6667 90.4848 53.3333 89.1212 54.5455 87.3636C55.7879 85.6061 56.4091 83.5 56.4091 81.0455C56.4091 77.6818 55.2121 74.9697 52.8182 72.9091C50.4545 70.8485 47.0909 69.8182 42.7273 69.8182H27.7727V92.8636ZM111.716 53.9091V147H92.3523V53.9091H111.716ZM158.773 148.364C151.712 148.364 145.606 146.864 140.455 143.864C135.333 140.833 131.379 136.621 128.591 131.227C125.803 125.803 124.409 119.515 124.409 112.364C124.409 105.152 125.803 98.8485 128.591 93.4545C131.379 88.0303 135.333 83.8182 140.455 80.8182C145.606 77.7879 151.712 76.2727 158.773 76.2727C165.833 76.2727 171.924 77.7879 177.045 80.8182C182.197 83.8182 186.167 88.0303 188.955 93.4545C191.742 98.8485 193.136 105.152 193.136 112.364C193.136 119.515 191.742 125.803 188.955 131.227C186.167 136.621 182.197 140.833 177.045 143.864C171.924 146.864 165.833 148.364 158.773 148.364ZM158.864 133.364C162.076 133.364 164.758 132.455 166.909 130.636C169.061 128.788 170.682 126.273 171.773 123.091C172.894 119.909 173.455 116.288 173.455 112.227C173.455 108.167 172.894 104.545 171.773 101.364C170.682 98.1818 169.061 95.6667 166.909 93.8182C164.758 91.9697 162.076 91.0455 158.864 91.0455C155.621 91.0455 152.894 91.9697 150.682 93.8182C148.5 95.6667 146.848 98.1818 145.727 101.364C144.636 104.545 144.091 108.167 144.091 112.227C144.091 116.288 144.636 119.909 145.727 123.091C146.848 126.273 148.5 128.788 150.682 130.636C152.894 132.455 155.621 133.364 158.864 133.364ZM237.182 174.636C230.909 174.636 225.53 173.773 221.045 172.045C216.591 170.348 213.045 168.03 210.409 165.091C207.773 162.152 206.061 158.848 205.273 155.182L223.182 152.773C223.727 154.167 224.591 155.47 225.773 156.682C226.955 157.894 228.515 158.864 230.455 159.591C232.424 160.348 234.818 160.727 237.636 160.727C241.848 160.727 245.318 159.697 248.045 157.636C250.803 155.606 252.182 152.197 252.182 147.409V134.636H251.364C250.515 136.576 249.242 138.409 247.545 140.136C245.848 141.864 243.667 143.273 241 144.364C238.333 145.455 235.152 146 231.455 146C226.212 146 221.439 144.788 217.136 142.364C212.864 139.909 209.455 136.167 206.909 131.136C204.394 126.076 203.136 119.682 203.136 111.955C203.136 104.045 204.424 97.4394 207 92.1364C209.576 86.8333 213 82.8636 217.273 80.2273C221.576 77.5909 226.288 76.2727 231.409 76.2727C235.318 76.2727 238.591 76.9394 241.227 78.2727C243.864 79.5758 245.985 81.2121 247.591 83.1818C249.227 85.1212 250.485 87.0303 251.364 88.9091H252.091V77.1818H271.318V147.682C271.318 153.621 269.864 158.591 266.955 162.591C264.045 166.591 260.015 169.591 254.864 171.591C249.742 173.621 243.848 174.636 237.182 174.636ZM237.591 131.455C240.712 131.455 243.348 130.682 245.5 129.136C247.682 127.561 249.348 125.318 250.5 122.409C251.682 119.47 252.273 115.955 252.273 111.864C252.273 107.773 251.697 104.227 250.545 101.227C249.394 98.197 247.727 95.8485 245.545 94.1818C243.364 92.5151 240.712 91.6818 237.591 91.6818C234.409 91.6818 231.727 92.5455 229.545 94.2727C227.364 95.9697 225.712 98.3333 224.591 101.364C223.47 104.394 222.909 107.894 222.909 111.864C222.909 115.894 223.47 119.379 224.591 122.318C225.742 125.227 227.394 127.485 229.545 129.091C231.727 130.667 234.409 131.455 237.591 131.455Z" fill="#8B5CF6"/>
<rect x="289" width="200" height="200" rx="50" fill="#EDE9FE"/>
<rect x="369" y="35" width="40" height="40" rx="20" fill="#8B5CF6"/>
<rect x="374" y="95" width="30" height="30" rx="15" fill="#A78BFA"/>
<rect x="374" y="135" width="30" height="30" rx="15" fill="#A78BFA"/>
<path d="M584.955 53.9091V147H567.955L527.455 88.4091H526.773V147H507.091V53.9091H524.364L564.545 112.455H565.364V53.9091H584.955ZM632.398 148.364C625.337 148.364 619.231 146.864 614.08 143.864C608.958 140.833 605.004 136.621 602.216 131.227C599.428 125.803 598.034 119.515 598.034 112.364C598.034 105.152 599.428 98.8485 602.216 93.4545C605.004 88.0303 608.958 83.8182 614.08 80.8182C619.231 77.7879 625.337 76.2727 632.398 76.2727C639.458 76.2727 645.549 77.7879 650.67 80.8182C655.822 83.8182 659.792 88.0303 662.58 93.4545C665.367 98.8485 666.761 105.152 666.761 112.364C666.761 119.515 665.367 125.803 662.58 131.227C659.792 136.621 655.822 140.833 650.67 143.864C645.549 146.864 639.458 148.364 632.398 148.364ZM632.489 133.364C635.701 133.364 638.383 132.455 640.534 130.636C642.686 128.788 644.307 126.273 645.398 123.091C646.519 119.909 647.08 116.288 647.08 112.227C647.08 108.167 646.519 104.545 645.398 101.364C644.307 98.1818 642.686 95.6667 640.534 93.8182C638.383 91.9697 635.701 91.0455 632.489 91.0455C629.246 91.0455 626.519 91.9697 624.307 93.8182C622.125 95.6667 620.473 98.1818 619.352 101.364C618.261 104.545 617.716 108.167 617.716 112.227C617.716 116.288 618.261 119.909 619.352 123.091C620.473 126.273 622.125 128.788 624.307 130.636C626.519 132.455 629.246 133.364 632.489 133.364ZM716.489 77.1818V91.7273H674.443V77.1818H716.489ZM683.989 60.4545H703.352V125.545C703.352 127.333 703.625 128.727 704.17 129.727C704.716 130.697 705.473 131.379 706.443 131.773C707.443 132.167 708.595 132.364 709.898 132.364C710.807 132.364 711.716 132.288 712.625 132.136C713.534 131.955 714.231 131.818 714.716 131.727L717.761 146.136C716.792 146.439 715.428 146.788 713.67 147.182C711.913 147.606 709.777 147.864 707.261 147.955C702.595 148.136 698.504 147.515 694.989 146.091C691.504 144.667 688.792 142.455 686.852 139.455C684.913 136.455 683.958 132.667 683.989 128.091V60.4545ZM760.17 148.364C752.989 148.364 746.807 146.909 741.625 144C736.473 141.061 732.504 136.909 729.716 131.545C726.928 126.152 725.534 119.773 725.534 112.409C725.534 105.227 726.928 98.9242 729.716 93.5C732.504 88.0758 736.428 83.8485 741.489 80.8182C746.58 77.7879 752.549 76.2727 759.398 76.2727C764.004 76.2727 768.292 77.0152 772.261 78.5C776.261 79.9545 779.746 82.1515 782.716 85.0909C785.716 88.0303 788.049 91.7273 789.716 96.1818C791.383 100.606 792.216 105.788 792.216 111.727V117.045H733.261V105.045H773.989C773.989 102.258 773.383 99.7879 772.17 97.6364C770.958 95.4848 769.277 93.803 767.125 92.5909C765.004 91.3485 762.534 90.7273 759.716 90.7273C756.777 90.7273 754.17 91.4091 751.898 92.7727C749.655 94.1061 747.898 95.9091 746.625 98.1818C745.352 100.424 744.701 102.924 744.67 105.682V117.091C744.67 120.545 745.307 123.53 746.58 126.045C747.883 128.561 749.716 130.5 752.08 131.864C754.443 133.227 757.246 133.909 760.489 133.909C762.64 133.909 764.61 133.606 766.398 133C768.186 132.394 769.716 131.485 770.989 130.273C772.261 129.061 773.231 127.576 773.898 125.818L791.807 127C790.898 131.303 789.034 135.061 786.216 138.273C783.428 141.455 779.822 143.939 775.398 145.727C771.004 147.485 765.928 148.364 760.17 148.364Z" fill="#A78BFA"/>
</svg>
